<?xml version="1.0" encoding="UTF-8"?>
<!-- Generator: Adobe Illustrator 18.1.1, SVG Export Plug-In . SVG Version: 6.00 Build 0)  -->
<!DOCTYPE svg PUBLIC "-//W3C//DTD SVG 1.1//EN" "http://www.w3.org/Graphics/SVG/1.1/DTD/svg11.dtd">
<svg version="1.1" xmlns="http://www.w3.org/2000/svg" xmlns:xlink="http://www.w3.org/1999/xlink" x="0px" y="0px" viewBox="0 0 1127.6 480" enable-background="new 0 0 1127.6 480" xml:space="preserve">
<g id="Layer_5">
	<path fill-rule="evenodd" clip-rule="evenodd" fill="#FF9566" d="M115.1,192.1L57.4,362.8C22.7,333.8,0.6,290.4,0,241.9   C-1,153.5,70.7,80.6,159,80c15.4-0.1,30.3,2,44.4,6l56-86l-72.5,214.8c-0.5,1.5-2,2.5-3.5,2.5h-30.6c-0.8,0-1.5-0.3-2-1   s-0.8-1.5-0.5-2.3l21-62.3h0C145.8,151.8,123.2,168,115.1,192.1z"/>
	<path fill-rule="evenodd" clip-rule="evenodd" fill="#EF7B52" d="M320,241.8c-1,88.3-74.2,159.5-162.5,158.2   c-14.2-0.2-27.9-2.3-41-6l-56,86l75.9-224.2c0.5-1.5,1.8-2.5,3.5-2.5h30.6c0.8,0,1.5,0.5,2,1c0.5,0.8,0.5,1.5,0.3,2.3l-24.1,71.7h0   c25.5,0,48.1-16.2,56.2-40.4l57.6-170.7C298.1,146.9,320.5,191.8,320,241.8z"/>
</g>
<g id="Layer_3">
	<path fill-rule="evenodd" clip-rule="evenodd" fill="#ffffff" d="M883.8,328.7c-4.3,0-7.9-1.8-10.4-5.4c-2.5-3.3-3.1-7.4-1.8-11.5   l51.4-151.6c1.8-5.4,6.4-8.7,12-8.7h16h56.5l-12.2,36h-36.1c-1.5,0-3.1,1-3.6,2.6l-8.1,23.7c-0.3,1,0,1.8,0.5,2.3   c0.5,0.8,1.3,1.3,2,1.3h39.4l-29,36h-23.4c-1.8,0-3.1,1-3.6,2.6l-11.4,33.4c-0.3,0.8,0,1.5,0.5,2.3c0.5,0.8,1.3,1,2,1h35.1   l-12.2,36h-47.8h-12.2H883.8L883.8,328.7z M1008.7,230.2l23.9,20.4l21.1,17.9l-7.4,21.7c-0.5,1.5-1.8,2.6-3.6,2.6h-20.9   c-0.8,0-1.5-0.3-2-1c-0.5-0.8-0.5-1.5-0.3-2.3l6.9-20.7h-39.2l-14.8,43.1c-1.3,4.1-0.8,8.2,1.8,11.5c2.5,3.6,6.1,5.4,10.2,5.4h15.5   h6.4h27h10.9h14.8c8.4,0,15.5-5.1,18.1-13l17.6-51.5c3.1-9.7,2.5-11.7-6.1-19.1l-20.9-17.6l-19.1-16.3c-1.3-1-1.8-2.6-1.3-4.1   l5.6-16.8c0.8-1.5,2-2.6,3.8-2.6h20.9c0.8,0,1.5,0.3,2,1c0.5,0.8,0.5,1.5,0.3,2.3l-5.1,15.1h39.4l12.7-37.5   c1.3-4.1,0.8-8.2-1.8-11.5c-2.5-3.6-6.1-5.4-10.4-5.4h-12h-5.8h-30.8h-18.8h-6.9c-8.4,0-15.5,5.1-18.1,13l-17.6,51.8   C1003.1,221.5,1004.6,226.6,1008.7,230.2L1008.7,230.2z M901.3,168.4l-49.6,147.2c-2.8,7.9-9.9,13-18.1,13h-77.1   c-4.1,0-7.9-2-10.2-5.4c-2.5-3.6-3.1-7.4-1.8-11.5l49.6-147.2c2.8-7.9,9.9-13,18.1-13h77.1c4.1,0,7.9,1.8,10.2,5.4   C902.1,160.3,902.6,164.3,901.3,168.4z M850.7,188.6c-0.5-0.8-1.3-1-2-1h-16.5c-1.8,0-3.1,1-3.6,2.5L795,289.4   c-0.3,0.8-0.3,1.5,0.3,2.3c0.5,0.5,1.3,1,2,1h16.6c1.8,0,3.1-1,3.6-2.6l33.6-99.3C851.2,190.1,851.2,189.3,850.7,188.6z M723,188.6   c-0.5-0.8-1.3-1.3-2-1.3h-13.5c-1.5,0-3.1,1-3.6,2.8l-8.2,24c-0.3,1-0.3,1.8,0.3,2.3c0.5,0.8,1.3,1.3,2,1.3h13.5   c1.5,0,3.1-1,3.6-2.8l8.2-24C723.5,190.1,723.5,189.1,723,188.6z M773.6,168.4L755.8,221c-4.1,12.2-8.6,18.4-21.4,18.9   c3.3,0.8,5.9,2.5,7.9,5.1c2.3,3.6,3.1,7.6,1.5,11.7l-24.4,72h-42.7l24.4-71.7c0.3-0.8,0.3-1.8-0.3-2.3c-0.5-0.8-1.3-1-2.3-1h-13.5   c-1.5,0-3.1,1-3.6,2.5l-24.4,72.5h-42.7l59.8-177.4h9.9l32.8,0.3h44.8c4.1,0,7.9,1.8,10.2,5.1C774.4,160.3,774.9,164.3,773.6,168.4   z M531.1,328.4h3.6h12.2l48.1,0.3l12-36h-35.1c-0.8,0-1.5-0.5-2-1.3c-0.5-0.5-0.8-1.5-0.3-2.3l11.2-33.4c0.5-1.5,2-2.6,3.6-2.6   h23.4l29-36h-39.4c-0.8,0-1.5-0.3-2-1c-0.5-0.8-0.8-1.5-0.3-2.3l7.9-24c0.5-1.5,2-2.6,3.6-2.6h36.1l12.2-36h-56.5h-16   c-5.6,0-10.2,3.6-12,8.7l-51.1,151.6c-1.5,4.1-0.8,8.2,1.5,11.7C523.3,326.6,526.8,328.4,531.1,328.4L531.1,328.4z M382.8,328.4   h42.7l24.7-72.7c0.5-1.5,1.8-2.6,3.6-2.6h19.3c0.8,0,1.5,0.5,2,1c0.5,0.8,0.5,1.5,0.3,2.3l-24.2,72H494l59.8-177.1H511l-21.4,63.3   c-0.5,1.5-2,2.6-3.6,2.6h-19.3c-0.8,0-1.5-0.3-2-1c-0.5-0.8-0.8-1.5-0.5-2.3l21.1-62.5h-42.7L382.8,328.4z"/>
</g>
</svg>